<?xml version="1.0" standalone="no"?>
<!DOCTYPE svg PUBLIC "-//W3C//DTD SVG 20010904//EN"
 "http://www.w3.org/TR/2001/REC-SVG-20010904/DTD/svg10.dtd">
<svg version="1.0" xmlns="http://www.w3.org/2000/svg"
 width="434.000000pt" height="289.000000pt" viewBox="0 0 434.000000 289.000000"
 preserveAspectRatio="xMidYMid meet">

<g transform="translate(0.000000,289.000000) scale(0.100000,-0.100000)"
fill="#000000" stroke="none">
<path d="M25 2858 c-3 -7 -4 -647 -3 -1423 l3 -1410 2145 0 2145 0 3 1423 2
1422 -2145 0 c-1707 0 -2147 -3 -2150 -12z m2362 -524 c173 -50 339 -158 446
-289 75 -93 142 -240 168 -368 19 -97 20 -119 10 -210 -14 -137 -33 -203 -92
-326 l-50 -105 73 -73 73 -73 -108 -108 -108 -107 -73 78 -73 79 -72 -36
c-352 -178 -709 -141 -1028 106 l-54 41 -127 -126 c-70 -70 -132 -127 -137
-127 -11 0 -165 159 -165 171 0 6 341 317 397 362 22 18 23 17 93 -36 258
-196 522 -257 766 -176 112 37 126 12 -180 318 l-274 273 -83 -80 -84 -81
-122 122 -123 122 28 26 c15 15 110 106 211 203 l183 176 49 0 c63 0 145 18
193 42 l39 20 66 -67 66 -66 -104 -101 -104 -100 264 -265 c145 -145 272 -269
282 -274 15 -8 20 -3 37 35 104 244 35 586 -163 802 -69 75 -196 173 -278 215
-33 16 -59 32 -59 36 0 12 131 -8 217 -33z"/>
</g>
</svg>
